<svg xmlns="http://www.w3.org/2000/svg" version="1.1" xmlns:xlink="http://www.w3.org/1999/xlink" xmlns:svgjs="http://svgjs.dev/svgjs" width="1487" height="721" preserveAspectRatio="none" viewBox="0 0 1487 721"><g mask="url(&quot;#SvgjsMask10652&quot;)" fill="none"><rect width="1487" height="721" x="0" y="0" fill="rgba(255, 255, 255, 1)"></rect><use xlink:href="#SvgjsG10671" transform="translate(0, 0)" fill="rgba(215, 235, 255, 1)"></use><use xlink:href="#SvgjsG10671" transform="translate(0, 480)" fill="rgba(215, 235, 255, 1)"></use><use xlink:href="#SvgjsG10671" transform="translate(480, 0)" fill="rgba(215, 235, 255, 1)"></use><use xlink:href="#SvgjsG10671" transform="translate(480, 480)" fill="rgba(215, 235, 255, 1)"></use><use xlink:href="#SvgjsG10671" transform="translate(960, 0)" fill="rgba(215, 235, 255, 1)"></use><use xlink:href="#SvgjsG10671" transform="translate(960, 480)" fill="rgba(215, 235, 255, 1)"></use><use xlink:href="#SvgjsG10671" transform="translate(1440, 0)" fill="rgba(215, 235, 255, 1)"></use><use xlink:href="#SvgjsG10671" transform="translate(1440, 480)" fill="rgba(215, 235, 255, 1)"></use></g><defs><mask id="SvgjsMask10652"><rect width="1487" height="721" fill="#ffffff"></rect></mask><g id="SvgjsG10653"><path d="M0.84 5.79C1.95 1.68 6.18-0.77 10.29 0.33 14.4 1.43 16.85 5.67 15.75 9.78S10.41 16.34 6.3 15.24c-4.11-1.1-6.56-5.34-5.46-9.45z m1.85 0.49c-0.83 3.09 1.01 6.29 4.11 7.12 3.09 0.83 6.28-1.02 7.11-4.11 0.83-3.09-1.02-6.28-4.11-7.11-3.1-0.83-6.28 1.01-7.11 4.1z"></path><path d="M7.3 7.56a0.57 0.57 0 0 1 0.19-0.53 0.58 0.58 0 0 1 0.45-0.14L12.27 8.04a0.58 0.58 0 0 1-0.3 1.12l-3.36-0.9 0.59 3.24a0.58 0.58 0 0 1-0.47 0.67c-0.32 0.06-0.62-0.15-0.68-0.46l-0.75-4.15z"></path></g><g id="SvgjsG10654"><path d="M6.73 11.79a46.75 46.75 0 0 1 0.53-0.4c0.15-0.11 0.3-0.22 0.45-0.34 0.89-0.67 1.74-1.4 2.09-2.35A2.81 2.81 0 0 0 9.88 8.46c0.02-0.08 0.03-0.17 0.05-0.26 0.17-1.01-0.19-2.06-0.63-3.09l-0.1 0.07c-0.11 0.08-0.22 0.16-0.32 0.25C9.31 6.45 9.63 7.42 9.39 8.32c-0.24 0.9-1 1.58-1.88 2.25a35.1 35.1 0 0 1-0.55 0.41c-0.15 0.11-0.29 0.21-0.44 0.33C5.55 12.04 4.64 12.82 4.34 13.91c-0.11 0.42-0.12 0.85-0.06 1.29l0.54 0.14c-0.08-0.45-0.1-0.88 0.02-1.29 0.24-0.9 1.01-1.59 1.89-2.26z"></path><path d="M7.56 11.58c-0.03 0.02-0.06 0.05-0.09 0.07-0.11 0.08-0.22 0.16-0.33 0.25 0.16 0.37 0.3 0.74 0.4 1.09l-1.32-0.35c-0.15 0.14-0.29 0.27-0.43 0.41L7.67 13.55c0.06 0.34 0.08 0.68 0.03 1l-2.45-0.65c-0.03 0.07-0.06 0.15-0.08 0.22-0.02 0.09-0.04 0.18-0.05 0.27L7.57 15.05c-0.12 0.32-0.31 0.61-0.55 0.88L7.56 16.08C7.82 15.73 8.03 15.36 8.14 14.94c0.29-1.09-0.11-2.23-0.58-3.36z m0.83-7.28c0.03-0.03 0.07-0.05 0.11-0.08 0.11-0.08 0.21-0.16 0.32-0.23-0.43-1.02-0.75-1.99-0.51-2.9C8.42 0.68 8.65 0.31 8.96-0.03l-0.55-0.14C8.14 0.17 7.93 0.54 7.82 0.96c-0.29 1.09 0.1 2.22 0.57 3.34z"></path><path d="M8.72 0.93c-0.03 0.08-0.06 0.16-0.08 0.24-0.02 0.08-0.04 0.17-0.05 0.26L11.04 2.08c-0.12 0.31-0.3 0.59-0.52 0.87-0.01-0.01-0.02-0.01-0.04-0.02l-1.83-0.49a5.82 5.82 0 0 0 0.16 0.57L10.12 3.36c-0.42 0.39-0.91 0.76-1.42 1.14C7.58 5.32 6.42 6.18 6.08 7.43c-0.29 1.08 0.1 2.22 0.58 3.34l0.11-0.08c0.11-0.08 0.21-0.16 0.31-0.23-0.15-0.36-0.29-0.72-0.4-1.07L7.99 9.74A5.82 5.82 0 0 0 8.41 9.32l-1.83-0.49c-0.01 0-0.02 0-0.03 0-0.06-0.34-0.08-0.68-0.03-1.01L8.97 8.48a1.97 1.97 0 0 0 0.09-0.25c0.02-0.08 0.03-0.16 0.05-0.24l-2.46-0.66c0.12-0.31 0.3-0.59 0.53-0.86 0.01 0.01 0.02 0.01 0.03 0.01L9.05 6.97a5.63 5.63 0 0 0-0.16-0.57l-1.32-0.35c0.42-0.4 0.92-0.77 1.43-1.14C10.12 4.08 11.28 3.23 11.62 1.97c0.11-0.42 0.13-0.84 0.08-1.26l-0.54-0.14c0.06 0.35 0.07 0.69 0.02 1.02L8.72 0.93z"></path></g><g id="SvgjsG10655"><path d="M8.8 2.55L9.45 0.12 10.74 0.47l-0.65 2.42-1.29-0.34zM12.43 4.69L14.6 3.44l0.66 1.14-2.17 1.26-0.66-1.15z m-6.58-1.76l-1.15 0.66-1.25-2.17 1.14-0.66 1.26 2.17z m7.28 7.12l0.35-1.28L15.9 9.42l-0.34 1.28-2.43-0.65z m-10.23-4.12l-0.34 1.29-2.43-0.65 0.35-1.29 2.42 0.65zM10.18 13.08l1.15-0.68 1.25 2.19-1.14 0.66-1.26-2.17z m-6.56-1.76l-2.19 1.25-0.66-1.15 2.17-1.25 0.68 1.16z m2.98 4.57l-1.28-0.34 0.65-2.42L7.25 13.47l-0.65 2.42z"></path><path d="M9.13 3.85a4.18 4.18 0 1 0-2.17 8.09 4.18 4.18 0 1 0 2.17-8.09"></path></g><g id="SvgjsG10656"><path d="M3.65 6.26S5.4 5.65 6.09 3.06C6.73 0.7 6.37-0.72 6.37-0.72L15.93 1.84s0.36 1.41-0.26 3.79C14.99 8.22 13.21 8.83 13.21 8.83L3.65 6.26z m-0.28 1.05s1.21 1.41 0.51 4c-0.63 2.37-1.65 3.41-1.65 3.41L11.79 17.28s1.02-1.05 1.67-3.41c0.71-2.58-0.53-4-0.53-3.99l-9.56-2.57z"></path><path d="M0.53 6.01S3.19 5.05 3.88 2.47c0.63-2.37 0.28-3.78 0.28-3.78l1.14 0.3s0.36 1.41-0.26 3.79c-0.67 2.59-3.37 3.54-3.37 3.54L0.53 6.01z m0 0s1.83 2.16 1.13 4.74c-0.63 2.37-1.65 3.41-1.65 3.42l1.14 0.3s1.02-1.05 1.67-3.41c0.71-2.58-1.15-4.75-1.15-4.74l-1.14-0.31z"></path></g><g id="SvgjsG10657"><path d="M0.28 14.19L5.53 11.16a6.3 6.3 0 1 0-1.54-5.99 6.26 6.26 0 0 0 0.04 3.39l-5.26 3.03L0.28 14.19zM11.08 3.03a3.91 3.91 0 0 1 2.76 4.78 3.91 3.91 0 0 1-4.78 2.76 3.9 3.9 0 0 1 2.02-7.54z"></path></g><g id="SvgjsG10658"><path d="M12.71 9.32c0.13-0.48 0.63-0.77 1.11-0.64 0.49 0.13 0.77 0.63 0.64 1.11a0.9 0.9 0 0 1-1.11 0.64 0.91 0.91 0 0 1-0.64-1.11z m-9.56 5.02l3.03 0.31c0.29 0.02 0.56-0.16 0.63-0.45 0.05-0.17 0.01-0.34-0.07-0.48L5.3 11.03c-0.02-0.04-0.05-0.09-0.08-0.13a0.65 0.65 0 0 0-0.91-0.11c-0.05 0.04-0.09 0.09-0.13 0.15l-0.33 0.49C2.52 10.52 1.75 8.95 1.86 7.3l9.54 2.56a2.2 2.2 0 0 0 1.61 1.82C14.19 12 15.4 11.3 15.71 10.12c0.31-1.17-0.38-2.39-1.56-2.7-0.88-0.24-1.78 0.11-2.31 0.79l-9.56-2.56c0.71-1.52 2.19-2.53 3.84-2.67l0.03 0.59c0.01 0.06 0.02 0.13 0.04 0.2 0.13 0.33 0.51 0.5 0.84 0.36a0.54 0.54 0 0 0 0.13-0.07L9.76 2.45A0.61 0.61 0 0 0 10.06 2.07a0.61 0.61 0 0 0-0.32-0.71L6.96 0.12c-0.04-0.02-0.09-0.04-0.14-0.06a0.65 0.65 0 0 0-0.79 0.46c-0.02 0.06-0.03 0.13-0.03 0.19l0.03 0.55C3.38 1.41 0.99 3.23 0.27 5.94s0.42 5.48 2.65 6.95l-0.3 0.46c-0.04 0.05-0.06 0.11-0.08 0.17a0.65 0.65 0 0 0 0.46 0.79 0.67 0.67 0 0 0 0.15 0.03z"></path></g><g id="SvgjsG10659"><path d="M4.12 0.04l-3.63 13.54L10.76 16.33 14.39 2.79l-10.27-2.75z m6.13 14.38L7.09 8.94c-0.33-0.56-0.1-1.34 0.47-1.67l5.45-3.14-2.76 10.28z m2.26-11.11l-4.46 2.57-2.57-4.46 7.02 1.89z m-7.87-1.43l2.57 4.46-0.19 0.11c-1.01 0.62-1.37 1.94-0.79 2.95l0.11 0.19-4.46 2.59 2.76-10.3z m-2.27 11.15L6.82 10.46 9.4 14.91 2.37 13.02z" fill-rule="evenodd"></path></g><g id="SvgjsG10660"><path d="M5.47 1.23a1.05 1.05 0 1 1 2.03 0.54 1.05 1.05 0 0 1-2.03-0.54zM2.34-1.8L4.33-1.27c0.72 0.19 1.14 0.94 0.95 1.66l-0.38 1.4c-0.19 0.72-0.95 1.2-1.66 1.01L1.25 2.27 2.34-1.8z m0.4 13.57a1.05 1.05 0 0 0 0.75 1.28 1.05 1.05 0 0 0 0.54-2.02 1.05 1.05 0 0 0-1.29 0.74zM-1.57 12.8L0.42 13.33c0.72 0.19 1.46-0.24 1.65-0.96l0.37-1.39c0.19-0.72-0.22-1.51-0.93-1.71L-0.48 8.74l-1.09 4.06z"></path><path d="M5.36 5.73a1.05 1.06 15 1 0-0.55 2.06 1.05 1.06 15 1 0 0.55-2.06"></path><path d="M1.05 3.03l1.98 1.4c1.04 0.62 0.75 1.56 0.75 1.55l-0.21 0.8s-0.22 0.95-1.43 0.98L-0.28 7.97l1.33-4.94z m6.34 4.35l2.41 0.64 0.5-0.29-2.4-0.65L9.52 1.04 17.17 3.09l-1.62 6.04L11.62 8.08l-0.51 0.29L15.84 9.64 17.68 2.8l-8.46-2.26-1.83 6.84z m2.99 6.43a1.05 1.05 0 0 1 1.28-0.74c0.56 0.15 0.89 0.73 0.74 1.28a1.05 1.05 0 0 1-1.28 0.74 1.05 1.05 0 0 1-0.74-1.28z"></path><path d="M8.92 8.59a0.44 0.44 0 0 0-0.54 0.31l-0.38 1.4c-0.04 0.16-0.04 0.39 0.08 0.52 0.37 0.42 0.75 0.87 0.87 1l-2.66-0.72-0.94 3.54L8.07 15.37c0.71 0.19 1.5-0.19 1.68-0.85-0.33-0.09-0.11-0.03 0.01 0L10.22 12.82a1.34 1.34 0 0 0-0.29-1.24l-1.04-1.18 0.34-1.27L11.51 7.81a0.18 0.18 0 0 0 0.07-0.25 0.18 0.18 0 0 0-0.25-0.06l-2.17 1.25c-0.05-0.05-0.16-0.14-0.24-0.16z"></path></g><g id="SvgjsG10661"><path d="M5.24 2.13L8.38 2.97c2.74 0.73 4.42 3.75 3.66 6.64-0.78 2.92-3.69 4.67-6.48 3.92l-3.15-0.85-0.35 1.31L5.21 14.83C8.73 15.79 12.38 13.59 13.35 9.96 14.32 6.36 12.21 2.59 8.74 1.66l-3.15-0.84-0.35 1.31z"></path><path d="M2.18 3.81l0.46-1.72L7.58 3.42l-0.46 1.72c-2.53 0.28-4.94-1.32-4.94-1.32m3.37 7.16L5.09 12.7 0.16 11.38l0.45-1.72c2.53-0.28 4.94 1.32 4.94 1.32"></path></g><g id="SvgjsG10662"><path d="M10.58 12.88l-10.95-4.47L0.93 3.55 12.65 5.15l-1.59 5.93L14.85 13.36 14.48 13.97l-3.61-2.17-0.29 1.08z" fill-rule="evenodd"></path></g><g id="SvgjsG10663"><path d="M3.63 10.16c-1.45-2.52-0.59-5.74 1.93-7.19 2.52-1.45 5.74-0.59 7.19 1.93 0.69 1.2 1.42 3.09 0.75 5.6-1.23 4.59-0.4 6.34-0.4 6.34-5.51-1.48-8.01-4.15-9.47-6.68z"></path><path d="M5.73 2.45L7.26 2.16l2.55 7.35z"></path><path d="M9.81 9.51l-1.41 0.81-5.8-10.04 1.41-0.82z"></path></g><g id="SvgjsG10664"><path d="M7.19 2.93l-3.24 3.24-0.56-0.55L6.64 2.37 7.19 2.93z"></path><path d="M1.09 9.2c0.75 1.39 2.03 2.48 3.67 2.92 2.02 0.54 4.13-0.03 5.59-1.41l2.71 2.71 0.25-0.25L13.98 13.84 14.99 12.83 14.32 12.16l0.26-0.26-6.66-6.66-0.34 0.34-0.82-0.83-0.85 0.85 0.83 0.82-0.34 0.34 2.8 2.8c-1.06 0.97-2.57 1.37-4.02 0.98-2.29-0.61-3.66-2.98-3.04-5.27L3.03 1.92 1.46 1.5l-2.53 9.43L0.51 11.35 1.09 9.2z"></path></g><g id="SvgjsG10665"><path d="M2.19 10.25L4.29 2.41 14.52 5.15l-2.1 7.84-10.23-2.74z m-0.44-4.32a0.46 0.46 0 1 1 0.88 0.24 0.46 0.46 0 0 1-0.88-0.24zM14.76 8.7l-0.36 1.34c-0.05 0.19-0.39 0.1-0.34-0.09l0.36-1.35c0.05-0.19 0.4-0.1 0.34 0.09zM14.43 13.34L16.43 5.85C16.52 5.53 16.25 5.18 15.83 5.07L3.19 1.68c-0.41-0.11-0.82 0.06-0.9 0.38l-2.01 7.49c-0.09 0.32 0.18 0.67 0.6 0.79L13.52 13.72c0.42 0.11 0.83-0.06 0.91-0.38z" fill-rule="evenodd"></path></g><g id="SvgjsG10666"><path d="M0.63 5.09c-0.21 0.8 0.25 1.82 1.18 2.07L3.96 7.74 3.46 9.6l10.19 0.54 0.14-0.53-9.12-4.51-0.47 1.78s-2.07-0.55-2.09-0.56c-0.48-0.13-0.7-0.72-0.62-1.03 0.11-0.4 0.46-0.78 1.07-0.62 0 0 0.66 0.25 0.79-0.23 0.13-0.49-0.39-0.6-0.49-0.63-1.35-0.36-2.06 0.64-2.23 1.28z m13.3 5.06l0.11-0.41L15.43 10.11c0.31 0.09 0.21 0.5-0.11 0.41-0.01 0-1.39-0.37-1.39-0.37z" fill-rule="evenodd"></path></g><g id="SvgjsG10667"><path d="M6.08 15.67C9.12 14.66 11.42 12.22 12.25 9.14 13.08 6.06 12.3 2.79 10.18 0.4L10.07 0.27l-0.16 0.05c-3.04 1.01-5.34 3.45-6.16 6.54-0.83 3.08-0.05 6.35 2.07 8.74l0.11 0.13 0.15-0.06z m3.74-14.47c1.4 1.72 2.08 3.88 1.94 6.05a3.83 3.83 0 0 0-0.43-1.13c-0.51-0.89-1.34-1.53-2.34-1.79a3.82 3.82 0 0 0-2.92 0.39 3.86 3.86 0 0 0-0.98 0.81C6.05 3.55 7.72 2 9.82 1.21z m-4.12 6.23c0.34-1.27 1.64-2.02 2.9-1.68 0.61 0.16 1.12 0.56 1.45 1.1a2.36 2.36 0 0 1 0.23 1.8c-0.16 0.61-0.56 1.12-1.1 1.45a2.36 2.36 0 0 1-1.8 0.23c-0.61-0.16-1.12-0.56-1.45-1.1a2.36 2.36 0 0 1-0.23-1.8z m-1.47 1.41a3.84 3.84 0 0 0 0.44 1.13 3.82 3.82 0 0 0 2.33 1.79c1.42 0.38 2.88-0.09 3.82-1.1C9.85 12.55 8.21 14.02 6.18 14.79c-1.38-1.7-2.06-3.81-1.95-5.95z"></path><path d="M8.07 7.21c-0.11 0.42 0.14 0.85 0.56 0.96s0.85-0.14 0.96-0.56a0.78 0.78 0 0 0-0.55-0.96A0.78 0.78 0 0 0 8.07 7.21"></path></g><g id="SvgjsG10668"><path d="M3.7 13.42c-2.64-0.71-4.21-3.42-3.5-6.07 0.71-2.64 3.42-4.21 6.07-3.5 1.26 0.34 3 1.11 4.23 3.22 2.23 3.87 3.95 4.48 3.94 4.49-4.65 2.68-8.1 2.57-10.73 1.86z"></path><path d="M13.1 5.2s-3.04-0.34-5.4 1.81c-1.31 1.19-4.7 3.47-5.61 3.22-1.91-0.51-1.26-5.22-0.75-7.12s2.48-3.05 4.4-2.54c1.91 0.51 5.42 1.27 7.36 4.63z"></path><path d="M9.36 8.49s-0.97-0.18-3.06 1.04c-1.15 0.66-2.18 0.55-2.86 0.36-1.43-0.38-2.28-1.85-1.9-3.28s1.85-2.28 3.29-1.9c1.43 0.38 3.08 1.26 4.53 3.78z"></path></g><g id="SvgjsG10669"><path d="M1.57 6.14a9.98 9.98 0 0 0 7.11-0.02A9.99 9.99 0 0 0 13.99 1.38 9.97 9.97 0 0 0 6.88 1.41a9.98 9.98 0 0 0-5.31 4.73z m7.51 1.01a11.29 11.29 0 0 1-1.88 0.53 11.33 11.33 0 0 1 1.36 1.39 11.1 11.1 0 0 1 1.21 1.86A9.97 9.97 0 0 0 15.75 9.99a9.98 9.98 0 0 0-4.74-3.81 11.23 11.23 0 0 1-1.93 0.97z m0.86 9.37a9.99 9.99 0 0 0-2.23-6.75 10.06 10.06 0 0 0-2.06-1.91 11.08 11.08 0 0 1-4.07-0.56 9.97 9.97 0 0 0 2.21 5.65A9.97 9.97 0 0 0 9.94 16.52z" fill-rule="evenodd"></path></g><g id="SvgjsG10670"><path d="M-1.62 12.98c0.08-0.31 0.23-0.58 0.43-0.81a2.16 2.16 0 0 0 0.44-0.84c0.08-0.32 0.09-0.64 0.03-0.95-0.05-0.3-0.04-0.61 0.05-0.92 0.08-0.31 0.23-0.58 0.42-0.81a2.17 2.17 0 0 0 0.44-0.84c0.08-0.31 0.09-0.64 0.04-0.95-0.05-0.3-0.04-0.61 0.04-0.92 0.08-0.31 0.23-0.58 0.42-0.82a2.17 2.17 0 0 0 0.44-0.83c0.09-0.32 0.09-0.64 0.04-0.95a2.18 2.18 0 0 1 0.04-0.92c0.08-0.31 0.23-0.58 0.43-0.82a2.17 2.17 0 0 0 0.44-0.84c0.08-0.32 0.09-0.64 0.04-0.94C2.07-0.48 2.07-0.79 2.16-1.1l1.31 0.35a2.15 2.15 0 0 0-0.04 0.92 2.23 2.23 0 0 1-0.04 0.94c-0.09 0.32-0.24 0.6-0.44 0.84a2.16 2.16 0 0 0-0.42 0.82c-0.08 0.31-0.09 0.62-0.04 0.92a2.22 2.22 0 0 1-0.04 0.95c-0.08 0.32-0.24 0.6-0.44 0.84a2.15 2.15 0 0 0-0.42 0.81c-0.08 0.31-0.09 0.62-0.05 0.92a2.22 2.22 0 0 1-0.04 0.95c-0.09 0.32-0.24 0.6-0.43 0.84-0.19 0.23-0.34 0.51-0.43 0.81-0.08 0.31-0.09 0.62-0.04 0.93a2.22 2.22 0 0 1-0.04 0.94c-0.09 0.32-0.24 0.6-0.44 0.84a2.16 2.16 0 0 0-0.42 0.81L-1.62 12.98zM12.81 11.6c-1.74 2.06-5.45 4.07-8.9 2.76L5.19 9.56 12.81 11.6zM3.46 13.15l2.86-10.67-1.96-0.52c-0.06 0.11-0.13 0.22-0.21 0.32-0.19 0.23-0.34 0.51-0.42 0.81-0.08 0.31-0.09 0.62-0.05 0.92a2.17 2.17 0 0 1-0.03 0.95c-0.08 0.32-0.24 0.6-0.45 0.84-0.19 0.23-0.34 0.51-0.42 0.81-0.08 0.31-0.09 0.62-0.04 0.92a2.18 2.18 0 0 1-0.04 0.95c-0.09 0.32-0.24 0.6-0.44 0.84-0.19 0.23-0.34 0.51-0.42 0.81-0.02 0.06-0.02 0.12-0.02 0.18 0 0.01-0.01 0-0.01 0.01-0.01 0.04 0 0.07-0.02 0.11-0.01 0.07-0.02 0.14-0.02 0.22-0.04 0.67 0.35 1.21 0.35 1.21l1.24 1.65 0.1-0.36v0zM15.33 11.49c0.02-0.02 0.03-0.04 0.02-0.06L15.34 11.43c0 0 0 0 0-0.01L7.59 0.75c-0.03-0.04-0.09-0.04-0.11 0.02l-2.14 8.02c-0.01 0.03 0.01 0.06 0.04 0.07L15.28 11.51a0.05 0.05 0 0 0 0.05-0.02z"></path></g><g id="SvgjsG10671"><use xlink:href="#SvgjsG10653" transform="translate(0, 0) scale(1.5)" fill="rgba(215, 235, 255, 1)"></use><use xlink:href="#SvgjsG10654" transform="translate(0, 48) scale(1.5)" fill="rgba(215, 235, 255, 1)"></use><use xlink:href="#SvgjsG10655" transform="translate(0, 96) scale(1.5)" fill="rgba(215, 235, 255, 1)"></use><use xlink:href="#SvgjsG10656" transform="translate(0, 144) scale(1.5)" fill="rgba(215, 235, 255, 1)"></use><use xlink:href="#SvgjsG10657" transform="translate(0, 192) scale(1.5)" fill="rgba(215, 235, 255, 1)"></use><use xlink:href="#SvgjsG10658" transform="translate(0, 240) scale(1.5)" fill="rgba(215, 235, 255, 1)"></use><use xlink:href="#SvgjsG10659" transform="translate(0, 288) scale(1.5)" fill="rgba(215, 235, 255, 1)"></use><use xlink:href="#SvgjsG10660" transform="translate(0, 336) scale(1.5)" fill="rgba(215, 235, 255, 1)"></use><use xlink:href="#SvgjsG10661" transform="translate(0, 384) scale(1.5)" fill="rgba(215, 235, 255, 1)"></use><use xlink:href="#SvgjsG10662" transform="translate(0, 432) scale(1.5)" fill="rgba(215, 235, 255, 1)"></use><use xlink:href="#SvgjsG10654" transform="translate(48, 0) scale(1.5)" fill="rgba(215, 235, 255, 1)"></use><use xlink:href="#SvgjsG10655" transform="translate(48, 48) scale(1.5)" fill="rgba(215, 235, 255, 1)"></use><use xlink:href="#SvgjsG10656" transform="translate(48, 96) scale(1.5)" fill="rgba(215, 235, 255, 1)"></use><use xlink:href="#SvgjsG10657" transform="translate(48, 144) scale(1.5)" fill="rgba(215, 235, 255, 1)"></use><use xlink:href="#SvgjsG10658" transform="translate(48, 192) scale(1.5)" fill="rgba(215, 235, 255, 1)"></use><use xlink:href="#SvgjsG10659" transform="translate(48, 240) scale(1.5)" fill="rgba(215, 235, 255, 1)"></use><use xlink:href="#SvgjsG10660" transform="translate(48, 288) scale(1.5)" fill="rgba(215, 235, 255, 1)"></use><use xlink:href="#SvgjsG10661" transform="translate(48, 336) scale(1.5)" fill="rgba(215, 235, 255, 1)"></use><use xlink:href="#SvgjsG10662" transform="translate(48, 384) scale(1.5)" fill="rgba(215, 235, 255, 1)"></use><use xlink:href="#SvgjsG10663" transform="translate(48, 432) scale(1.5)" fill="rgba(215, 235, 255, 1)"></use><use xlink:href="#SvgjsG10655" transform="translate(96, 0) scale(1.5)" fill="rgba(215, 235, 255, 1)"></use><use xlink:href="#SvgjsG10656" transform="translate(96, 48) scale(1.5)" fill="rgba(215, 235, 255, 1)"></use><use xlink:href="#SvgjsG10657" transform="translate(96, 96) scale(1.5)" fill="rgba(215, 235, 255, 1)"></use><use xlink:href="#SvgjsG10658" transform="translate(96, 144) scale(1.5)" fill="rgba(215, 235, 255, 1)"></use><use xlink:href="#SvgjsG10659" transform="translate(96, 192) scale(1.5)" fill="rgba(215, 235, 255, 1)"></use><use xlink:href="#SvgjsG10660" transform="translate(96, 240) scale(1.5)" fill="rgba(215, 235, 255, 1)"></use><use xlink:href="#SvgjsG10661" transform="translate(96, 288) scale(1.5)" fill="rgba(215, 235, 255, 1)"></use><use xlink:href="#SvgjsG10662" transform="translate(96, 336) scale(1.5)" fill="rgba(215, 235, 255, 1)"></use><use xlink:href="#SvgjsG10663" transform="translate(96, 384) scale(1.5)" fill="rgba(215, 235, 255, 1)"></use><use xlink:href="#SvgjsG10664" transform="translate(96, 432) scale(1.5)" fill="rgba(215, 235, 255, 1)"></use><use xlink:href="#SvgjsG10656" transform="translate(144, 0) scale(1.5)" fill="rgba(215, 235, 255, 1)"></use><use xlink:href="#SvgjsG10657" transform="translate(144, 48) scale(1.5)" fill="rgba(215, 235, 255, 1)"></use><use xlink:href="#SvgjsG10658" transform="translate(144, 96) scale(1.5)" fill="rgba(215, 235, 255, 1)"></use><use xlink:href="#SvgjsG10659" transform="translate(144, 144) scale(1.5)" fill="rgba(215, 235, 255, 1)"></use><use xlink:href="#SvgjsG10660" transform="translate(144, 192) scale(1.5)" fill="rgba(215, 235, 255, 1)"></use><use xlink:href="#SvgjsG10661" transform="translate(144, 240) scale(1.5)" fill="rgba(215, 235, 255, 1)"></use><use xlink:href="#SvgjsG10662" transform="translate(144, 288) scale(1.5)" fill="rgba(215, 235, 255, 1)"></use><use xlink:href="#SvgjsG10663" transform="translate(144, 336) scale(1.5)" fill="rgba(215, 235, 255, 1)"></use><use xlink:href="#SvgjsG10664" transform="translate(144, 384) scale(1.5)" fill="rgba(215, 235, 255, 1)"></use><use xlink:href="#SvgjsG10665" transform="translate(144, 432) scale(1.5)" fill="rgba(215, 235, 255, 1)"></use><use xlink:href="#SvgjsG10657" transform="translate(192, 0) scale(1.5)" fill="rgba(215, 235, 255, 1)"></use><use xlink:href="#SvgjsG10658" transform="translate(192, 48) scale(1.5)" fill="rgba(215, 235, 255, 1)"></use><use xlink:href="#SvgjsG10659" transform="translate(192, 96) scale(1.5)" fill="rgba(215, 235, 255, 1)"></use><use xlink:href="#SvgjsG10660" transform="translate(192, 144) scale(1.5)" fill="rgba(215, 235, 255, 1)"></use><use xlink:href="#SvgjsG10661" transform="translate(192, 192) scale(1.5)" fill="rgba(215, 235, 255, 1)"></use><use xlink:href="#SvgjsG10662" transform="translate(192, 240) scale(1.5)" fill="rgba(215, 235, 255, 1)"></use><use xlink:href="#SvgjsG10663" transform="translate(192, 288) scale(1.5)" fill="rgba(215, 235, 255, 1)"></use><use xlink:href="#SvgjsG10664" transform="translate(192, 336) scale(1.5)" fill="rgba(215, 235, 255, 1)"></use><use xlink:href="#SvgjsG10665" transform="translate(192, 384) scale(1.5)" fill="rgba(215, 235, 255, 1)"></use><use xlink:href="#SvgjsG10666" transform="translate(192, 432) scale(1.5)" fill="rgba(215, 235, 255, 1)"></use><use xlink:href="#SvgjsG10658" transform="translate(240, 0) scale(1.5)" fill="rgba(215, 235, 255, 1)"></use><use xlink:href="#SvgjsG10659" transform="translate(240, 48) scale(1.5)" fill="rgba(215, 235, 255, 1)"></use><use xlink:href="#SvgjsG10660" transform="translate(240, 96) scale(1.5)" fill="rgba(215, 235, 255, 1)"></use><use xlink:href="#SvgjsG10661" transform="translate(240, 144) scale(1.5)" fill="rgba(215, 235, 255, 1)"></use><use xlink:href="#SvgjsG10662" transform="translate(240, 192) scale(1.5)" fill="rgba(215, 235, 255, 1)"></use><use xlink:href="#SvgjsG10663" transform="translate(240, 240) scale(1.5)" fill="rgba(215, 235, 255, 1)"></use><use xlink:href="#SvgjsG10664" transform="translate(240, 288) scale(1.5)" fill="rgba(215, 235, 255, 1)"></use><use xlink:href="#SvgjsG10665" transform="translate(240, 336) scale(1.5)" fill="rgba(215, 235, 255, 1)"></use><use xlink:href="#SvgjsG10666" transform="translate(240, 384) scale(1.5)" fill="rgba(215, 235, 255, 1)"></use><use xlink:href="#SvgjsG10667" transform="translate(240, 432) scale(1.5)" fill="rgba(215, 235, 255, 1)"></use><use xlink:href="#SvgjsG10659" transform="translate(288, 0) scale(1.5)" fill="rgba(215, 235, 255, 1)"></use><use xlink:href="#SvgjsG10660" transform="translate(288, 48) scale(1.5)" fill="rgba(215, 235, 255, 1)"></use><use xlink:href="#SvgjsG10661" transform="translate(288, 96) scale(1.5)" fill="rgba(215, 235, 255, 1)"></use><use xlink:href="#SvgjsG10662" transform="translate(288, 144) scale(1.5)" fill="rgba(215, 235, 255, 1)"></use><use xlink:href="#SvgjsG10663" transform="translate(288, 192) scale(1.5)" fill="rgba(215, 235, 255, 1)"></use><use xlink:href="#SvgjsG10664" transform="translate(288, 240) scale(1.5)" fill="rgba(215, 235, 255, 1)"></use><use xlink:href="#SvgjsG10665" transform="translate(288, 288) scale(1.5)" fill="rgba(215, 235, 255, 1)"></use><use xlink:href="#SvgjsG10666" transform="translate(288, 336) scale(1.5)" fill="rgba(215, 235, 255, 1)"></use><use xlink:href="#SvgjsG10667" transform="translate(288, 384) scale(1.5)" fill="rgba(215, 235, 255, 1)"></use><use xlink:href="#SvgjsG10668" transform="translate(288, 432) scale(1.5)" fill="rgba(215, 235, 255, 1)"></use><use xlink:href="#SvgjsG10660" transform="translate(336, 0) scale(1.5)" fill="rgba(215, 235, 255, 1)"></use><use xlink:href="#SvgjsG10661" transform="translate(336, 48) scale(1.5)" fill="rgba(215, 235, 255, 1)"></use><use xlink:href="#SvgjsG10662" transform="translate(336, 96) scale(1.5)" fill="rgba(215, 235, 255, 1)"></use><use xlink:href="#SvgjsG10663" transform="translate(336, 144) scale(1.5)" fill="rgba(215, 235, 255, 1)"></use><use xlink:href="#SvgjsG10664" transform="translate(336, 192) scale(1.5)" fill="rgba(215, 235, 255, 1)"></use><use xlink:href="#SvgjsG10665" transform="translate(336, 240) scale(1.5)" fill="rgba(215, 235, 255, 1)"></use><use xlink:href="#SvgjsG10666" transform="translate(336, 288) scale(1.5)" fill="rgba(215, 235, 255, 1)"></use><use xlink:href="#SvgjsG10667" transform="translate(336, 336) scale(1.5)" fill="rgba(215, 235, 255, 1)"></use><use xlink:href="#SvgjsG10668" transform="translate(336, 384) scale(1.5)" fill="rgba(215, 235, 255, 1)"></use><use xlink:href="#SvgjsG10669" transform="translate(336, 432) scale(1.5)" fill="rgba(215, 235, 255, 1)"></use><use xlink:href="#SvgjsG10661" transform="translate(384, 0) scale(1.5)" fill="rgba(215, 235, 255, 1)"></use><use xlink:href="#SvgjsG10662" transform="translate(384, 48) scale(1.5)" fill="rgba(215, 235, 255, 1)"></use><use xlink:href="#SvgjsG10663" transform="translate(384, 96) scale(1.5)" fill="rgba(215, 235, 255, 1)"></use><use xlink:href="#SvgjsG10664" transform="translate(384, 144) scale(1.5)" fill="rgba(215, 235, 255, 1)"></use><use xlink:href="#SvgjsG10665" transform="translate(384, 192) scale(1.5)" fill="rgba(215, 235, 255, 1)"></use><use xlink:href="#SvgjsG10666" transform="translate(384, 240) scale(1.5)" fill="rgba(215, 235, 255, 1)"></use><use xlink:href="#SvgjsG10667" transform="translate(384, 288) scale(1.5)" fill="rgba(215, 235, 255, 1)"></use><use xlink:href="#SvgjsG10668" transform="translate(384, 336) scale(1.5)" fill="rgba(215, 235, 255, 1)"></use><use xlink:href="#SvgjsG10669" transform="translate(384, 384) scale(1.5)" fill="rgba(215, 235, 255, 1)"></use><use xlink:href="#SvgjsG10670" transform="translate(384, 432) scale(1.5)" fill="rgba(215, 235, 255, 1)"></use><use xlink:href="#SvgjsG10662" transform="translate(432, 0) scale(1.5)" fill="rgba(215, 235, 255, 1)"></use><use xlink:href="#SvgjsG10663" transform="translate(432, 48) scale(1.5)" fill="rgba(215, 235, 255, 1)"></use><use xlink:href="#SvgjsG10664" transform="translate(432, 96) scale(1.5)" fill="rgba(215, 235, 255, 1)"></use><use xlink:href="#SvgjsG10665" transform="translate(432, 144) scale(1.5)" fill="rgba(215, 235, 255, 1)"></use><use xlink:href="#SvgjsG10666" transform="translate(432, 192) scale(1.5)" fill="rgba(215, 235, 255, 1)"></use><use xlink:href="#SvgjsG10667" transform="translate(432, 240) scale(1.5)" fill="rgba(215, 235, 255, 1)"></use><use xlink:href="#SvgjsG10668" transform="translate(432, 288) scale(1.5)" fill="rgba(215, 235, 255, 1)"></use><use xlink:href="#SvgjsG10669" transform="translate(432, 336) scale(1.5)" fill="rgba(215, 235, 255, 1)"></use><use xlink:href="#SvgjsG10670" transform="translate(432, 384) scale(1.5)" fill="rgba(215, 235, 255, 1)"></use><use xlink:href="#SvgjsG10653" transform="translate(432, 432) scale(1.5)" fill="rgba(215, 235, 255, 1)"></use></g></defs></svg>